<svg width="1005" height="104" viewBox="0 0 1005 104" fill="none" xmlns="http://www.w3.org/2000/svg">
<path fill-rule="evenodd" clip-rule="evenodd" d="M1005 0L962.333 13.4815C919.667 26.963 834.333 53.9259 749 55.8519C663.667 57.7778 578.333 34.6667 493 23.1111C407.667 11.5556 322.333 11.5556 237 15.4074C151.667 19.2593 66.3333 26.963 23.6666 30.8148L-19 34.6667V104H23.6666C66.3333 104 151.667 104 237 104C322.333 104 407.667 104 493 104C578.333 104 663.667 104 749 104C834.333 104 919.667 104 962.333 104H1005V0Z" fill="#3F3D56"/>
</svg>
